<?xml version="1.0" standalone="no"?>
<!DOCTYPE svg PUBLIC "-//W3C//DTD SVG 20010904//EN"
 "http://www.w3.org/TR/2001/REC-SVG-20010904/DTD/svg10.dtd">
<svg version="1.0" xmlns="http://www.w3.org/2000/svg"
 width="557.000000pt" height="831.000000pt" viewBox="0 0 557.000000 831.000000"
 preserveAspectRatio="xMidYMid meet">

<g transform="translate(0.000000,831.000000) scale(0.100000,-0.100000)"
fill="#000000" stroke="none">
<path d="M2245 8264 l-49 -46 22 -17 c17 -13 21 -23 17 -46 -5 -27 -2 -32 30
-47 39 -20 95 -24 95 -8 0 6 7 10 15 10 8 0 15 -4 15 -9 0 -9 -48 -60 -84 -89
-18 -14 -21 -32 -6 -32 6 0 10 6 10 14 0 16 57 49 64 38 2 -4 -7 -21 -21 -37
-14 -17 -23 -22 -19 -12 3 9 2 17 -3 17 -4 0 -8 -22 -7 -49 1 -27 4 -47 8 -44
4 2 5 -3 2 -11 -3 -9 -9 -14 -13 -12 -4 3 -13 1 -21 -5 -12 -7 -9 -9 10 -9 24
-1 24 -1 6 -15 -11 -8 -14 -15 -8 -15 25 0 95 42 135 81 41 39 57 47 57 29 0
-23 31 -7 59 32 17 23 31 38 31 34 0 -5 10 2 23 15 27 29 84 73 152 119 28 19
58 42 68 51 11 10 41 35 68 56 26 21 48 41 49 46 0 4 -38 7 -85 7 -50 0 -85
-4 -85 -10 0 -5 -5 -10 -11 -10 -6 0 -26 -12 -45 -26 -19 -15 -34 -23 -34 -19
0 4 -6 2 -13 -4 -8 -6 -17 -8 -20 -4 -4 3 -15 -1 -24 -9 -29 -25 -63 -32 -63
-13 0 9 -4 13 -10 10 -6 -4 -10 12 -10 39 l0 46 -127 0 -128 0 -50 -46z m225
-84 c0 -5 -4 -10 -9 -10 -6 0 -13 5 -16 10 -3 6 1 10 9 10 9 0 16 -4 16 -10z
m-3 -26 c-3 -3 -12 -4 -19 -1 -8 3 -5 6 6 6 11 1 17 -2 13 -5z m-7 -34 c0 -5
-5 -10 -11 -10 -5 0 -7 5 -4 10 3 6 8 10 11 10 2 0 4 -4 4 -10z m-33 -6 c-3
-3 -12 -4 -19 -1 -8 3 -5 6 6 6 11 1 17 -2 13 -5z m-31 -133 c-9 -8 -18 -12
-22 -9 -9 10 3 25 21 25 14 0 14 -2 1 -16z"/>
<path d="M3020 8295 c17 -20 49 -29 63 -16 25 20 36 -1 22 -41 -10 -31 -10
-38 1 -42 8 -3 14 -11 14 -17 0 -7 7 -17 16 -23 14 -11 13 -18 -15 -69 -17
-32 -31 -62 -31 -68 0 -45 -229 -294 -335 -364 -30 -20 -57 -44 -60 -54 -14
-45 -14 -191 0 -245 16 -61 20 -157 5 -121 -10 26 -30 134 -30 166 0 23 -1 23
-20 -6 -21 -33 -22 -52 -17 -195 8 -176 16 -218 48 -241 16 -11 29 -26 28 -32
0 -9 -2 -8 -6 1 -5 14 -43 17 -43 3 0 -5 7 -14 15 -21 23 -19 19 -31 -32 -85
-49 -51 -102 -124 -103 -138 0 -5 26 22 57 60 70 82 100 113 110 113 4 0 31
-24 60 -52 l53 -53 -6 33 c-4 18 -2 32 3 32 5 0 15 12 22 27 12 27 12 27 -6
10 -26 -23 -35 -22 -62 7 -14 15 -21 33 -19 48 4 20 7 18 27 -22 l22 -45 -5
80 c-3 44 -9 107 -12 140 -5 49 -3 63 10 74 9 7 16 27 16 43 0 20 6 31 18 35
11 2 30 32 48 71 16 36 38 78 50 92 12 14 27 41 34 60 7 21 27 45 46 58 25 16
34 31 39 59 18 113 29 161 45 193 10 20 21 58 24 85 5 36 4 44 -3 29 -10 -24
-29 -39 -37 -31 -9 8 16 50 47 79 23 21 29 36 29 68 0 48 16 84 35 76 8 -3 15
5 18 22 7 35 -22 86 -51 90 -18 3 -21 9 -18 40 1 20 -2 51 -7 69 -10 32 -12
33 -65 33 -47 0 -53 -2 -42 -15z m40 -537 c-1 -22 -24 -53 -67 -92 -23 -21
-55 -62 -70 -92 -15 -30 -34 -67 -42 -82 -15 -30 -78 -92 -93 -92 -5 0 -8 -11
-6 -24 3 -25 -29 -76 -49 -76 -32 0 -13 85 25 112 10 7 22 24 25 38 3 14 19
33 35 43 42 24 104 97 136 160 22 43 83 117 97 117 5 0 9 -6 9 -12z m-311
-577 c16 -49 14 -92 -8 -124 l-18 -29 -12 33 c-14 40 -14 69 0 125 13 49 20
48 38 -5z"/>
<path d="M3290 8279 c0 -20 -4 -28 -12 -23 -8 5 -9 0 -6 -14 4 -12 3 -22 -2
-22 -4 0 -13 -13 -20 -30 -7 -16 -16 -30 -21 -30 -5 0 -9 -5 -9 -11 0 -6 29
15 64 47 48 44 65 66 65 87 1 24 -3 27 -29 27 -27 0 -30 -3 -30 -31z"/>
<path d="M3705 8249 c-45 -61 -60 -95 -27 -61 34 36 89 122 77 122 -3 0 -25
-27 -50 -61z"/>
<path d="M4570 8298 c0 -7 11 -62 25 -123 26 -115 30 -171 16 -245 -8 -40 -6
-51 26 -110 19 -36 38 -68 41 -72 4 -4 43 -2 87 3 58 8 85 16 97 30 9 10 20
19 24 19 4 0 15 6 23 14 9 8 73 43 143 79 70 36 134 71 141 79 8 7 29 27 48
44 62 57 132 137 232 266 18 23 18 23 -8 26 -14 2 -32 -4 -41 -12 -8 -9 -24
-16 -35 -16 -20 0 -21 -1 -24 -40 -1 -14 -22 -52 -46 -84 -36 -48 -57 -65
-113 -92 -94 -45 -176 -97 -176 -111 0 -16 -83 -41 -167 -48 -75 -7 -76 -7
-119 47 -33 42 -104 206 -119 277 -15 66 -21 81 -36 81 -11 0 -19 -6 -19 -12z"/>
<path d="M3150 8210 c0 -5 5 -10 11 -10 5 0 7 5 4 10 -3 6 -8 10 -11 10 -2 0
-4 -4 -4 -10z"/>
<path d="M3216 8037 c-20 -25 -26 -45 -25 -78 l1 -44 7 35 c7 37 38 90 51 90
4 0 10 7 14 15 10 28 -23 15 -48 -18z"/>
<path d="M3255 8012 c-28 -38 -45 -80 -45 -113 0 -19 -12 -42 -35 -68 -24 -26
-35 -48 -34 -67 0 -27 1 -28 12 -10 7 11 28 35 47 54 33 32 35 33 38 13 2 -11
7 -21 12 -21 16 0 20 32 5 53 -37 52 -3 127 65 142 40 9 40 29 -1 21 -25 -5
-30 -3 -25 9 9 25 -18 16 -39 -13z"/>
<path d="M3357 7956 c-59 -21 -77 -43 -77 -90 0 -41 -22 -86 -41 -86 -6 0 -7
5 -4 10 9 14 -7 12 -28 -4 -13 -10 -20 -31 -23 -71 -7 -95 -29 -158 -83 -238
-35 -52 -47 -77 -37 -77 15 0 81 81 106 129 15 30 41 133 44 180 3 32 35 72
66 83 5 1 13 27 17 56 5 44 10 55 37 71 17 11 43 23 59 26 15 4 27 11 27 16 0
12 -18 11 -63 -5z"/>
<path d="M3465 7949 c-4 -6 -5 -13 -2 -16 7 -7 27 6 27 18 0 12 -17 12 -25 -2z"/>
<path d="M2480 7795 c-12 -43 -10 -169 3 -182 3 -3 11 -2 17 2 12 7 12 213 0
220 -4 3 -13 -16 -20 -40z"/>
<path d="M5556 7603 c-6 -14 -5 -15 5 -6 7 7 10 15 7 18 -3 3 -9 -2 -12 -12z"/>
<path d="M2476 7470 c4 -135 29 -261 62 -320 l14 -25 -6 25 c-22 84 -58 288
-66 365 -8 83 -9 79 -4 -45z"/>
<path d="M3186 7439 c-4 -22 -28 -53 -76 -99 -66 -63 -100 -116 -100 -157 0
-10 -23 -42 -50 -71 -27 -30 -54 -70 -61 -90 -6 -20 -18 -46 -25 -57 -8 -11
-14 -29 -14 -40 1 -11 18 16 40 60 23 49 56 97 84 125 34 32 46 52 46 73 0 41
30 85 99 145 60 53 94 113 73 134 -6 6 -12 -2 -16 -23z"/>
<path d="M747 7453 c-4 -3 -7 -14 -7 -24 0 -9 -17 -30 -37 -46 -49 -38 -68
-49 -59 -35 3 6 2 13 -4 17 -13 8 -13 -18 1 -32 8 -8 8 -13 0 -17 -6 -4 -11
-2 -11 3 0 6 -5 11 -10 11 -6 0 -8 -10 -5 -23 4 -16 -3 -33 -28 -62 -43 -51
-73 -130 -86 -229 -11 -77 -35 -126 -70 -141 -21 -8 -28 10 -36 87 -6 57 -10
68 -24 66 -11 -2 -18 -18 -22 -58 -4 -30 -13 -73 -22 -95 -9 -25 -14 -63 -12
-102 2 -45 -2 -72 -15 -97 -15 -30 -15 -38 -4 -54 7 -11 11 -22 8 -25 -3 -3
-7 -36 -8 -74 -2 -37 -6 -83 -11 -100 -6 -27 -4 -34 11 -40 25 -9 34 -23 34
-55 0 -33 -16 -36 -81 -12 -24 8 -83 22 -130 30 -48 7 -94 17 -103 20 -15 6
-16 -89 -14 -1232 l3 -1239 25 -45 c23 -42 24 -54 25 -200 0 -103 -5 -170 -14
-200 -7 -25 -20 -65 -27 -89 -17 -54 -20 -385 -4 -427 8 -19 8 -30 0 -38 -6
-6 -10 -72 -10 -171 1 -163 10 -242 28 -254 6 -3 18 -36 27 -73 l17 -67 52 -6
c74 -9 185 1 228 19 21 9 47 16 59 16 13 0 30 7 39 15 10 9 25 12 40 8 22 -6
23 -7 4 -15 -11 -4 38 -6 114 -3 115 4 135 7 154 25 26 24 94 61 101 54 2 -2
22 -7 43 -10 22 -2 40 -9 42 -14 5 -14 82 -13 82 1 0 6 7 9 15 5 10 -4 17 3
21 22 3 15 9 35 15 44 5 10 9 24 9 31 0 7 8 22 18 33 10 10 19 22 20 26 2 4 9
23 17 42 20 47 18 128 -4 196 -16 53 -16 58 1 125 10 39 18 84 18 101 0 33 16
44 82 58 43 10 218 166 218 196 0 4 -18 1 -40 -6 -65 -22 -179 -36 -239 -29
-149 17 -360 89 -423 144 -65 58 -91 137 -82 256 4 50 12 104 19 120 20 46 43
134 51 195 4 30 11 66 17 80 6 14 11 30 12 35 2 6 10 36 20 67 9 32 13 62 10
68 -7 12 -58 -51 -95 -117 -22 -41 -40 -55 -40 -33 0 5 -7 7 -15 4 -11 -5 -15
1 -15 20 0 28 -35 66 -61 66 -10 0 -24 -8 -31 -17 -7 -10 -20 -19 -28 -21 -8
-2 -20 -10 -26 -18 -24 -30 -54 -2 -54 51 0 30 -36 105 -51 105 -11 0 -30 -14
-66 -50 -26 -26 -51 -33 -90 -24 -29 6 -49 40 -33 59 8 10 5 15 -16 22 -21 7
-27 16 -30 43 -2 30 -14 99 -24 135 -7 29 1 65 15 65 28 0 115 50 115 66 0 23
102 122 138 135 17 6 41 26 52 44 11 18 30 35 43 39 36 10 145 7 152 -4 3 -6
8 -38 10 -72 4 -56 8 -66 40 -96 19 -18 35 -40 35 -48 0 -8 17 -31 38 -52 21
-20 46 -48 54 -62 18 -30 30 -98 18 -105 -4 -3 -10 -17 -12 -32 -3 -16 -8 -37
-12 -48 -4 -11 2 -4 13 15 11 19 20 43 21 52 0 9 5 18 11 20 8 3 8 10 -2 26
-10 16 -11 24 -2 33 9 9 11 7 6 -10 -3 -12 -1 -21 6 -21 6 0 11 17 11 38 0 62
10 81 55 108 24 14 50 39 58 57 37 79 96 212 136 307 17 41 38 89 45 105 8 17
22 53 31 80 10 28 21 59 26 70 27 62 119 367 119 393 0 15 6 22 20 22 11 0 26
12 34 28 l15 27 -5 -40 c-14 -106 -141 -489 -214 -640 -78 -164 -141 -308
-136 -312 3 -3 20 7 38 22 88 74 118 108 147 169 17 36 31 68 31 70 0 2 42 91
94 197 126 260 124 256 92 329 -16 35 -26 75 -26 104 0 43 2 47 39 64 33 16
38 17 33 4 -4 -11 -1 -13 9 -7 28 16 48 38 43 46 -3 5 2 6 11 3 11 -5 14 -2 8
12 -4 11 -3 15 5 10 6 -3 23 6 38 21 16 16 29 23 31 16 3 -7 11 -9 20 -6 12 5
11 9 -8 19 l-24 12 28 7 c16 4 33 3 39 -3 12 -12 58 24 58 45 0 7 7 13 17 13
15 0 15 1 0 18 -15 16 -15 19 4 30 15 9 24 10 33 3 10 -8 22 -1 48 27 19 20
35 40 36 45 1 4 11 16 22 27 12 12 18 25 15 30 -3 6 8 25 25 42 39 41 96 136
104 174 4 16 23 46 44 66 20 20 66 70 102 111 36 41 94 95 129 120 35 26 56
47 47 47 -25 0 -52 -16 -94 -56 -20 -19 -39 -34 -42 -34 -4 0 -31 -30 -61 -67
-29 -38 -67 -82 -84 -100 -16 -17 -38 -44 -47 -60 -33 -54 -43 -68 -53 -75 -5
-4 -10 -13 -10 -19 0 -7 -6 -14 -14 -17 -10 -3 -12 0 -8 12 4 10 7 22 7 27 0
6 5 7 10 4 6 -3 10 3 10 14 0 10 5 21 11 23 10 3 20 50 23 104 1 12 6 20 11
17 6 -2 11 6 12 17 1 11 -2 20 -8 20 -5 0 -9 5 -9 10 0 6 7 10 15 10 18 0 20
16 3 24 -9 3 -8 8 5 16 24 15 21 29 -5 24 -16 -4 -14 -1 7 9 25 11 27 14 12
20 -16 6 -17 15 -11 67 5 43 3 69 -6 86 -11 19 -11 27 -2 36 14 14 16 72 3 64
-14 -9 -21 37 -8 53 10 12 9 14 -7 8 -14 -6 -17 -4 -12 8 9 26 -4 46 -28 40
-11 -2 -15 -2 -8 1 14 7 16 40 3 48 -5 4 -12 -8 -16 -25 -4 -17 -9 -28 -12
-25 -3 2 0 20 7 40 8 27 8 40 0 57 -10 17 -14 19 -21 8 -6 -10 -9 -7 -9 12 0
28 -53 121 -94 165 -20 23 -26 25 -26 11 0 -9 -4 -17 -10 -17 -5 0 -10 6 -10
14 0 22 -42 49 -51 34 -8 -13 10 -30 23 -22 4 3 8 -2 8 -11 0 -12 -6 -15 -20
-10 -25 8 -43 -2 -33 -18 8 -12 8 -16 12 -57 2 -14 5 -19 8 -12 5 13 33 17 33
4 0 -4 -5 -13 -12 -20 -9 -9 -8 -15 8 -27 27 -20 34 -19 35 8 1 12 5 1 10 -26
7 -33 6 -54 -2 -70 -12 -21 -11 -21 6 -7 10 8 16 10 12 3 -4 -6 4 -19 19 -30
24 -18 26 -25 31 -128 6 -127 19 -172 17 -57 -2 64 -1 69 5 27 l6 -50 8 37 c9
43 -1 140 -14 132 -5 -3 -6 2 -3 11 4 8 0 23 -7 33 -13 15 -12 16 4 3 9 -7 18
-10 18 -5 1 5 5 -11 10 -36 10 -58 11 -180 2 -180 -5 0 -9 -24 -10 -53 -1 -28
-9 -79 -18 -112 -9 -33 -17 -66 -18 -72 0 -7 -3 -13 -7 -13 -3 0 -6 -8 -7 -18
-1 -10 -13 -44 -27 -75 -14 -32 -25 -58 -24 -60 0 -1 -18 -33 -42 -71 -46 -76
-131 -185 -178 -229 l-30 -29 -21 23 c-17 19 -21 20 -21 6 0 -9 4 -17 9 -17 5
0 11 -9 14 -20 3 -11 1 -20 -4 -20 -5 0 -17 9 -26 20 -10 11 -22 20 -28 20 -5
0 -21 9 -34 19 l-24 18 22 24 c12 13 24 34 27 46 4 13 10 23 14 23 14 0 47
101 59 180 17 110 -9 297 -48 346 -11 14 -22 44 -26 67 -4 23 -12 49 -17 57
-7 11 -8 7 -4 -12 32 -147 39 -201 42 -318 3 -123 -8 -227 -25 -240 -4 -3 -14
-21 -21 -40 -8 -19 -20 -42 -27 -50 -7 -8 -18 -23 -26 -33 -11 -17 -19 -12
-90 55 -43 41 -79 72 -81 71 -2 -2 -14 12 -27 32 -13 19 -28 35 -33 35 -5 0
-3 6 3 14 9 11 9 16 0 22 -8 4 -9 3 -5 -4 10 -17 -13 -15 -30 3 -8 8 -23 20
-32 27 -29 21 -162 185 -155 192 8 7 -17 37 -27 31 -4 -2 -13 7 -20 20 -7 14
-17 25 -22 25 -4 0 -8 7 -8 15 0 7 -6 18 -12 22 -21 13 -45 46 -53 72 -5 16
-4 21 4 17 12 -8 16 26 4 38 -4 3 -8 14 -10 24 -9 49 -8 56 12 57 16 0 20 7
21 34 0 22 9 43 27 62 15 16 27 33 27 38 0 5 9 11 20 14 11 3 23 13 27 24 9
24 45 53 60 48 6 -2 17 3 24 11 10 12 9 16 -9 21 -26 6 -19 23 10 23 21 0 21
0 2 22 -19 21 -19 21 4 15 16 -4 29 1 40 13 8 11 19 17 22 15 4 -3 5 7 2 20
-3 18 0 25 12 25 9 0 16 5 16 11 0 6 7 9 15 6 8 -4 17 -2 20 2 6 10 -41 20
-104 23 -37 1 -39 2 -13 5 18 2 30 8 27 13 -6 9 -101 5 -245 -10 -41 -4 -78
-5 -83 -3 -12 7 26 64 40 59 7 -3 13 -2 13 3 0 5 21 18 48 29 26 11 46 23 45
26 -2 3 -3 15 -3 26 0 16 7 20 30 20 39 0 91 26 84 43 -3 6 -17 21 -31 31 -26
20 -27 20 -74 -6 -27 -14 -53 -22 -61 -17 -16 9 -68 0 -68 -12 0 -5 -7 -9 -15
-9 -8 0 -15 -4 -15 -9 0 -5 -7 -11 -15 -15 -26 -10 -16 9 15 27 35 21 43 67
12 67 -10 0 -22 -3 -25 -7z m-17 -182 c0 -6 -4 -13 -10 -16 -5 -3 -10 1 -10 9
0 9 5 16 10 16 6 0 10 -4 10 -9z m7 -87 c-3 -3 -12 -4 -19 -1 -8 3 -5 6 6 6
11 1 17 -2 13 -5z m1123 -124 c0 -12 7 -20 18 -21 12 0 13 -2 3 -6 -8 -3 -20
2 -28 13 -16 21 -17 34 -3 34 6 0 10 -9 10 -20z m40 -61 c0 -6 -4 -7 -10 -4
-5 3 -10 11 -10 16 0 6 5 7 10 4 6 -3 10 -11 10 -16z m17 -61 c-3 -8 -6 -5 -6
6 -1 11 2 17 5 13 3 -3 4 -12 1 -19z m23 -53 c0 -8 -4 -15 -10 -15 -5 0 -7 7
-4 15 4 8 8 15 10 15 2 0 4 -7 4 -15z m77 -100 c0 -8 -4 -12 -9 -9 -5 3 -6 10
-3 15 9 13 12 11 12 -6z m-100 -17 c-3 -8 -6 -5 -6 6 -1 11 2 17 5 13 3 -3 4
-12 1 -19z m-1227 -53 c7 -14 17 -25 21 -25 4 0 22 -26 39 -57 67 -125 412
-533 450 -533 6 0 10 -6 10 -13 0 -7 17 -27 38 -44 20 -18 53 -46 72 -62 19
-17 38 -31 43 -31 4 0 7 -4 7 -10 0 -5 -6 -10 -13 -10 -8 0 -36 -12 -63 -26
-43 -23 -63 -27 -154 -29 -58 -2 -86 -1 -62 2 37 4 41 6 33 22 -7 12 -20 17
-41 16 -16 -1 -30 3 -30 9 0 6 -5 4 -10 -4 -9 -13 -12 -12 -25 4 -19 25 -19
50 -1 43 16 -6 28 26 19 50 -5 13 -39 32 -70 39 -6 1 -14 -5 -17 -13 -4 -10
-2 -13 7 -10 7 3 21 -1 30 -8 16 -11 15 -13 -13 -17 -18 -3 -30 0 -30 7 0 6
-5 16 -12 23 -7 7 -11 30 -9 51 1 21 -2 42 -8 45 -13 8 -25 -37 -18 -64 3 -11
1 -20 -4 -20 -9 0 -14 39 -10 70 1 8 4 49 6 90 2 41 7 84 11 94 5 13 2 23 -9
31 -10 7 -14 20 -10 33 3 13 1 22 -6 22 -6 0 -12 -8 -12 -17 -1 -10 -5 4 -10
31 -4 27 -12 52 -16 55 -22 15 -73 97 -73 116 0 12 -16 36 -35 55 -19 19 -35
43 -35 54 0 11 -7 28 -17 38 -14 15 -14 18 -1 18 8 0 21 -11 28 -25z m1328
-24 c-2 -8 -9 -16 -15 -19 -9 -2 -13 8 -13 35 1 36 1 37 16 18 8 -11 13 -26
12 -34z m-1224 24 c3 -8 1 -15 -4 -15 -6 0 -10 7 -10 15 0 8 2 15 4 15 2 0 6
-7 10 -15z m21 -35 c3 -5 -1 -10 -9 -10 -9 0 -16 5 -16 10 0 6 4 10 9 10 6 0
13 -4 16 -10z m1171 -197 c-5 -74 -29 -164 -52 -201 -8 -12 -12 -28 -8 -34 4
-6 3 -8 -3 -5 -9 6 -23 -11 -27 -33 -1 -3 -4 -10 -8 -16 -4 -6 -1 -20 7 -30 8
-10 15 -26 15 -34 0 -12 -3 -11 -16 2 -9 9 -17 29 -17 45 0 27 22 93 34 103 4
3 9 16 13 30 4 14 11 34 16 45 14 30 40 143 40 171 0 13 3 24 6 24 3 0 3 -30
0 -67z m33 -187 c-3 -3 -11 5 -18 17 -13 21 -12 21 5 5 10 -10 16 -20 13 -22z
m-149 -168 c0 -5 -9 -8 -20 -8 -18 0 -19 3 -8 20 9 14 14 16 20 7 4 -7 8 -15
8 -19z m-36 -43 c-4 -8 -10 -12 -15 -9 -11 6 -2 24 11 24 5 0 7 -7 4 -15z
m123 -16 c-7 -17 -28 -46 -49 -64 -20 -18 -34 -35 -32 -38 3 -2 -2 -7 -10 -10
-8 -3 -20 2 -28 11 -12 15 -11 16 4 4 14 -11 17 -10 23 8 3 11 10 18 15 15 7
-4 43 40 45 55 1 11 30 50 37 50 3 0 1 -14 -5 -31z m-158 -37 c-6 -18 -18 -32
-26 -32 -13 0 -14 3 -1 23 8 12 18 28 22 35 14 23 17 7 5 -26z m-834 -61 c-3
-6 -11 -11 -16 -11 -5 0 -4 6 3 14 14 16 24 13 13 -3z m767 -23 c-12 -18 -30
-39 -42 -46 -11 -7 -18 -17 -15 -22 4 -6 -1 -7 -11 -3 -12 4 -15 3 -10 -5 5
-8 2 -10 -9 -6 -13 5 -11 10 12 27 15 11 41 37 56 59 33 47 48 44 19 -4z m198
2 c0 -5 -7 -10 -16 -10 -8 0 -12 5 -9 10 3 6 10 10 16 10 5 0 9 -4 9 -10z
m-95 -10 c3 -5 1 -10 -4 -10 -6 0 -11 5 -11 10 0 6 2 10 4 10 3 0 8 -4 11 -10z
m-35 -30 c-6 -11 -15 -20 -20 -20 -14 0 -12 6 6 24 21 22 27 20 14 -4z m87 -4
c-9 -7 -17 -18 -17 -25 0 -6 -4 -11 -10 -11 -5 0 -10 3 -10 7 0 12 43 53 49
47 3 -3 -2 -11 -12 -18z m-425 -38 c26 -18 48 -38 48 -45 0 -11 -37 -29 -52
-25 -5 1 -7 -4 -5 -10 1 -7 -8 -14 -21 -16 -13 -2 -26 -10 -29 -18 -3 -8 -11
-14 -17 -14 -7 0 -17 -5 -23 -11 -6 -6 -29 -19 -50 -29 -38 -17 -38 -17 -39 7
-1 12 2 23 8 23 27 0 -28 32 -57 33 -18 0 -32 5 -29 9 3 4 -7 8 -23 9 l-28 1
25 8 c21 7 18 8 -20 10 -38 2 -41 3 -20 10 14 4 40 8 58 9 33 1 153 38 162 49
7 10 44 31 54 31 5 1 31 -14 58 -31z m-643 -1 c0 -9 -2 -8 -6 1 -2 6 -10 9
-15 6 -7 -4 -8 -2 -4 5 9 13 26 5 25 -12z m945 14 c3 -4 -3 -16 -14 -26 -19
-17 -19 -17 -7 9 14 29 14 29 21 17z m75 -15 c9 -11 9 -16 0 -22 -8 -4 -9 -3
-5 4 4 7 2 12 -3 12 -6 0 -11 5 -11 10 0 14 5 13 19 -4z m-209 -16 c0 -5 -4
-10 -10 -10 -5 0 -10 5 -10 10 0 6 5 10 10 10 6 0 10 -4 10 -10z m80 -35 c-7
-8 -19 -15 -27 -15 -10 0 -8 6 8 19 27 22 38 19 19 -4z m-668 5 c25 0 28 -3
19 -14 -9 -11 -20 -12 -54 -3 -53 12 -77 32 -28 23 18 -3 47 -6 63 -6z m728
-14 c0 -3 -4 -8 -10 -11 -5 -3 -10 -1 -10 4 0 6 5 11 10 11 6 0 10 -2 10 -4z
m-200 -20 c0 -8 11 -13 25 -13 30 0 40 -7 30 -23 -5 -7 -11 -8 -19 -1 -9 7
-16 7 -24 -1 -8 -8 -12 -8 -12 -1 0 17 -55 10 -74 -10 -15 -15 -46 -24 -46
-13 0 12 72 44 87 39 11 -4 14 -3 9 5 -8 14 0 32 15 32 5 0 9 -6 9 -14z m-420
-20 c0 -2 -9 -6 -20 -9 -11 -3 -18 -1 -14 4 5 9 34 13 34 5z m110 -27 c12 -9
10 -10 -8 -6 -23 5 -23 5 -6 -14 18 -20 17 -20 -9 -10 -15 6 -27 7 -27 3 0 -4
-5 0 -10 8 -7 11 -4 17 13 22 31 9 30 9 47 -3z m320 -25 c0 -2 -9 -4 -20 -4
-11 0 -20 4 -20 9 0 5 9 7 20 4 11 -3 20 -7 20 -9z m-150 -14 c0 -5 -5 -10
-11 -10 -5 0 -7 5 -4 10 3 6 8 10 11 10 2 0 4 -4 4 -10z m-176 -19 c3 -5 -5
-11 -19 -13 -13 -3 -22 -2 -20 3 3 4 -1 10 -7 12 -7 3 -1 6 14 6 15 1 29 -3
32 -8z m296 5 c0 -3 -4 -8 -10 -11 -5 -3 -10 -1 -10 4 0 6 5 11 10 11 6 0 10
-2 10 -4z m-355 -26 c-3 -5 -12 -10 -18 -10 -7 0 -6 4 3 10 19 12 23 12 15 0z
m230 0 c3 -5 1 -10 -4 -10 -6 0 -11 5 -11 10 0 6 2 10 4 10 3 0 8 -4 11 -10z
m-377 -27 c-10 -2 -26 -2 -35 0 -10 3 -2 5 17 5 19 0 27 -2 18 -5z m427 -3
c-3 -5 -16 -15 -28 -21 -21 -10 -21 -9 2 10 25 23 36 27 26 11z m-95 -10 c0
-5 -5 -10 -11 -10 -5 0 -7 5 -4 10 3 6 8 10 11 10 2 0 4 -4 4 -10z m-210 -77
c0 -10 -12 -56 -26 -103 -14 -47 -34 -119 -45 -160 -66 -246 -128 -445 -136
-437 -7 8 61 292 120 497 27 96 52 185 54 198 6 26 33 30 33 5z m-270 -983 c0
-5 -4 -10 -10 -10 -5 0 -10 5 -10 10 0 6 5 10 10 10 6 0 10 -4 10 -10z m-210
-504 c0 -3 -4 -8 -10 -11 -5 -3 -10 -1 -10 4 0 6 5 11 10 11 6 0 10 -2 10 -4z
m-25 -26 c3 -5 1 -10 -4 -10 -6 0 -11 5 -11 10 0 6 2 10 4 10 3 0 8 -4 11 -10z
m-130 -492 c6 -13 17 -22 23 -20 16 3 11 -20 -8 -35 -13 -10 -13 -12 2 -18 9
-4 19 -12 21 -19 7 -17 -62 -13 -74 5 -12 19 -11 62 1 95 11 29 16 27 35 -8z
m76 -11 c-13 -13 -26 -3 -16 12 3 6 11 8 17 5 6 -4 6 -10 -1 -17z m-1 -42 c0
-8 -5 -15 -11 -15 -6 0 -8 -7 -4 -17 5 -14 3 -15 -5 -7 -7 7 -9 21 -5 33 7 24
25 28 25 6z m-13 -87 c-3 -7 -5 -2 -5 12 0 14 2 19 5 13 2 -7 2 -19 0 -25z"/>
<path d="M951 6214 c0 -11 3 -14 6 -6 3 7 2 16 -1 19 -3 4 -6 -2 -5 -13z"/>
<path d="M943 6115 c-8 -22 -2 -24 27 -13 20 7 22 11 10 18 -21 14 -30 12 -37
-5z"/>
<path d="M1345 5750 c3 -5 8 -10 11 -10 2 0 4 5 4 10 0 6 -5 10 -11 10 -5 0
-7 -4 -4 -10z"/>
<path d="M1315 5734 c9 -9 19 -13 23 -10 3 4 0 11 -8 16 -24 15 -33 11 -15 -6z"/>
<path d="M660 7389 c0 -5 5 -7 10 -4 6 3 10 8 10 11 0 2 -4 4 -10 4 -5 0 -10
-5 -10 -11z"/>
<path d="M3024 7386 c-3 -9 -12 -16 -19 -16 -16 0 -74 -86 -81 -120 -2 -14
-18 -52 -35 -85 l-30 -60 30 31 c39 41 71 94 71 118 0 10 18 46 40 79 22 33
38 62 35 65 -2 3 -7 -3 -11 -12z"/>
<path d="M1186 7333 c50 -46 106 -136 98 -158 -3 -8 -2 -15 3 -15 9 0 27 -37
93 -185 9 -22 34 -86 55 -143 37 -100 57 -132 36 -56 -7 25 -7 40 -1 44 7 4
-5 54 -30 130 -37 112 -44 159 -20 120 6 -8 10 -10 10 -4 0 6 -7 17 -15 24
-10 9 -15 9 -15 1 0 -22 -15 -10 -32 27 -10 20 -27 54 -39 74 -24 43 -134 158
-151 158 -6 0 -2 -8 8 -17z"/>
<path d="M5500 7245 c-36 -19 -84 -39 -107 -46 -24 -7 -43 -16 -43 -21 0 -16
-83 -88 -110 -95 -13 -3 -54 -37 -91 -75 -36 -37 -82 -75 -102 -83 -39 -16
-67 -49 -67 -78 0 -33 -44 -65 -109 -78 -43 -8 -61 -16 -61 -27 0 -17 -22 -84
-30 -92 -8 -8 -29 -43 -36 -60 -35 -81 -69 -149 -83 -165 -19 -21 -35 -79 -20
-69 5 3 9 -6 9 -20 0 -14 -4 -26 -10 -26 -5 0 -10 6 -10 14 0 17 -28 41 -37
32 -4 -4 -2 -16 5 -26 18 -30 15 -43 -18 -65 -17 -11 -33 -28 -36 -39 -7 -21
15 -106 27 -106 22 0 6 -41 -23 -61 -18 -13 -35 -26 -38 -29 -3 -4 -17 -10
-32 -14 -17 -4 -28 -14 -29 -24 -5 -76 -7 -91 -13 -101 -4 -7 1 -11 13 -11 12
0 21 5 21 12 0 6 7 19 16 29 8 9 16 30 17 45 3 26 6 29 32 26 17 -2 35 -10 41
-18 14 -17 36 -19 32 -1 -1 6 1 24 5 39 6 24 11 27 45 25 31 -2 37 -7 40 -28
3 -21 8 -24 42 -24 31 0 40 4 44 21 3 11 17 26 31 32 14 6 25 17 25 23 0 13
31 81 40 89 3 3 17 21 30 40 14 19 46 56 72 81 27 26 48 50 48 55 0 5 18 29
40 53 22 24 40 52 40 62 0 10 8 20 18 23 10 3 26 21 37 38 28 49 50 69 67 63
8 -3 21 1 28 10 7 8 9 15 4 15 -5 0 6 9 24 20 17 11 32 26 32 34 0 8 6 21 13
28 6 8 24 37 39 64 15 28 57 82 93 120 64 68 74 84 55 84 -5 0 -10 7 -10 15 0
8 -4 15 -10 15 -5 0 -14 9 -20 20 -11 21 -9 25 58 83 31 26 41 47 23 47 -4 0
-25 -16 -45 -35 -21 -19 -40 -35 -44 -35 -13 1 -42 27 -42 37 0 14 72 78 109
98 27 13 31 21 31 55 0 22 -1 40 -2 40 -2 -1 -32 -16 -68 -35z m-890 -1098 c0
-21 -12 -28 -27 -16 -19 16 -16 29 7 29 11 0 20 -6 20 -13z"/>
<path d="M1332 7220 c14 -22 24 -19 15 5 -4 8 -11 15 -17 15 -6 0 -6 -7 2 -20z"/>
<path d="M1200 7194 c0 -8 5 -12 10 -9 6 4 8 11 5 16 -9 14 -15 11 -15 -7z"/>
<path d="M1715 7090 c3 -5 8 -10 11 -10 2 0 4 5 4 10 0 6 -5 10 -11 10 -5 0
-7 -4 -4 -10z"/>
<path d="M1110 7074 c0 -8 5 -12 10 -9 6 3 10 10 10 16 0 5 -4 9 -10 9 -5 0
-10 -7 -10 -16z"/>
<path d="M271 6774 c0 -11 3 -14 6 -6 3 7 2 16 -1 19 -3 4 -6 -2 -5 -13z"/>
<path d="M2651 6745 c-17 -20 -31 -41 -31 -48 0 -7 -9 -18 -20 -25 -11 -7 -20
-17 -20 -23 0 -18 30 11 58 56 14 22 32 45 41 52 9 6 13 14 10 18 -4 3 -20
-10 -38 -30z"/>
<path d="M2080 6623 c0 -13 5 -23 10 -23 13 0 13 11 0 30 -8 12 -10 11 -10 -7z"/>
<path d="M2464 6575 c-16 -14 -32 -25 -36 -25 -5 0 -8 -4 -8 -10 0 -5 3 -10 8
-10 12 0 88 70 76 70 -6 0 -24 -11 -40 -25z"/>
<path d="M5280 6580 c0 -24 15 -27 24 -4 9 22 8 24 -9 24 -8 0 -15 -9 -15 -20z"/>
<path d="M1910 6534 c-12 -32 -13 -44 -1 -44 5 0 11 16 13 35 5 42 1 44 -12 9z"/>
<path d="M5240 6535 c0 -8 7 -15 15 -15 8 0 15 -4 15 -9 0 -14 -56 -52 -64
-44 -4 4 -4 0 -1 -9 4 -9 -3 -35 -15 -58 l-21 -41 25 16 c14 9 30 14 36 10 11
-7 31 34 23 48 -2 4 0 7 6 7 17 0 26 91 10 101 -20 13 -29 11 -29 -6z"/>
<path d="M2246 6515 c-11 -8 -18 -17 -15 -19 2 -3 15 4 29 14 14 11 21 20 15
19 -5 0 -19 -6 -29 -14z"/>
<path d="M2131 6450 c-15 -13 -18 -20 -9 -20 8 0 23 9 33 20 23 26 7 25 -24 0z"/>
<path d="M1008 6417 c12 -13 22 -29 22 -35 0 -7 5 -12 10 -12 16 0 12 28 -7
50 -10 11 -24 20 -32 20 -11 0 -9 -6 7 -23z"/>
<path d="M1057 6364 c-3 -4 1 -13 9 -22 17 -16 42 -2 30 17 -8 12 -29 15 -39
5z"/>
<path d="M1100 6311 c0 -10 19 -25 25 -20 1 2 -3 10 -11 17 -8 7 -14 8 -14 3z"/>
<path d="M5156 6243 c-6 -14 -5 -15 5 -6 7 7 10 15 7 18 -3 3 -9 -2 -12 -12z"/>
<path d="M4501 6204 c-1 -34 32 -84 46 -71 4 5 0 14 -9 21 -9 7 -21 28 -26 47
l-10 34 -1 -31z"/>
<path d="M5112 6150 c0 -14 2 -19 5 -12 2 6 2 18 0 25 -3 6 -5 1 -5 -13z"/>
<path d="M5080 6095 c-7 -13 -16 -22 -21 -20 -8 5 -29 -48 -29 -73 0 -12 6
-10 22 8 15 16 18 25 10 28 -7 2 -12 8 -12 14 0 5 6 8 13 5 10 -3 47 42 47 58
0 14 -18 2 -30 -20z"/>
<path d="M4217 6064 c-4 -4 -7 -17 -7 -28 1 -19 1 -20 11 -3 11 19 8 43 -4 31z"/>
<path d="M4260 6026 c0 -8 5 -18 10 -21 6 -3 10 3 10 14 0 12 -4 21 -10 21 -5
0 -10 -6 -10 -14z"/>
<path d="M4200 5975 c0 -8 4 -15 10 -15 5 0 7 7 4 15 -4 8 -8 15 -10 15 -2 0
-4 -7 -4 -15z"/>
<path d="M4625 5970 c3 -5 12 -7 20 -3 21 7 19 13 -6 13 -11 0 -18 -4 -14 -10z"/>
<path d="M4568 5927 c-3 -19 -2 -25 4 -19 6 6 8 18 6 28 -3 14 -5 12 -10 -9z"/>
<path d="M4621 5904 c0 -11 3 -14 6 -6 3 7 2 16 -1 19 -3 4 -6 -2 -5 -13z"/>
<path d="M4981 5906 c-8 -10 -9 -16 -1 -21 5 -3 10 -5 11 -3 4 18 7 38 4 38
-1 0 -8 -6 -14 -14z"/>
<path d="M5088 5855 c-2 -2 -34 -5 -71 -6 -48 -2 -67 -6 -67 -16 0 -7 6 -13
13 -13 6 0 4 -5 -5 -11 -10 -5 -18 -17 -18 -24 0 -8 -4 -15 -9 -15 -12 0 -61
-44 -61 -55 0 -5 -7 -16 -16 -26 -12 -14 -13 -22 -4 -38 10 -19 17 -21 92 -16
50 3 85 10 89 17 5 7 13 14 19 14 5 1 15 2 21 3 7 1 9 11 5 26 -6 23 -4 25 26
25 41 0 63 -13 53 -30 -6 -10 5 -12 51 -6 76 9 124 26 125 46 0 10 2 11 6 3 3
-8 24 -13 54 -13 l49 0 -39 38 c-49 46 -92 69 -156 81 -63 12 -152 21 -157 16z"/>
<path d="M1800 5830 c-13 -8 -12 -10 3 -10 9 0 17 5 17 10 0 12 -1 12 -20 0z"/>
<path d="M4190 5767 c0 -7 7 -22 15 -34 25 -35 5 -69 -44 -77 -48 -7 -53 -22
-11 -31 49 -11 52 -78 5 -129 -13 -14 -33 -43 -46 -65 -19 -35 -20 -45 -11
-82 7 -26 7 -50 1 -66 -5 -13 -9 -37 -9 -52 0 -29 -42 -83 -72 -94 -22 -8 -23
-26 -3 -63 l15 -29 0 41 c0 42 22 74 52 74 24 0 45 102 35 169 -9 64 12 131
48 155 13 9 26 30 30 48 14 69 12 67 50 50 19 -9 35 -19 35 -23 0 -4 -11 -21
-24 -37 -17 -19 -23 -36 -19 -51 4 -16 -2 -30 -21 -50 -22 -23 -28 -40 -31
-91 -4 -46 -1 -70 10 -87 l15 -23 30 27 c17 14 30 33 30 40 0 24 42 116 74
161 24 34 27 45 17 52 -17 10 -41 2 -41 -13 0 -7 -4 -7 -12 2 -7 6 -13 28 -13
47 0 40 21 51 79 40 57 -11 99 49 54 77 -13 9 -21 6 -37 -14 -27 -33 -55 -16
-58 35 -2 51 -7 53 -28 6 -10 -22 -24 -40 -31 -40 -30 0 -44 13 -44 41 0 16
-7 45 -14 64 -15 36 -26 45 -26 22z"/>
<path d="M1480 5565 c-10 -12 -10 -21 -1 -41 6 -14 11 -46 11 -72 0 -71 15
-79 17 -9 1 34 -3 67 -9 74 -6 7 -7 24 -4 38 7 29 4 31 -14 10z"/>
<path d="M4012 5423 c-6 -32 -16 -94 -22 -138 -8 -52 -22 -99 -41 -134 -33
-61 -34 -74 -13 -116 l14 -30 -6 35 c-9 53 -7 68 16 97 30 38 58 145 65 251 4
50 5 92 2 92 -2 0 -9 -26 -15 -57z"/>
<path d="M4466 5425 c-9 -14 -30 -27 -49 -30 -34 -7 -76 -59 -56 -71 6 -3 14
-17 20 -30 8 -23 14 -25 61 -23 33 2 53 -2 56 -9 2 -7 7 -10 12 -7 4 3 13 -2
20 -10 21 -25 48 -18 52 13 2 21 8 27 28 28 54 1 86 23 60 39 -6 4 -8 10 -5
15 12 20 -44 43 -90 37 -38 -6 -46 -3 -60 15 -8 13 -15 30 -15 40 0 25 -15 22
-34 -7z"/>
<path d="M1516 5304 c-4 -9 -4 -19 -1 -22 2 -3 7 3 11 12 4 9 4 19 1 22 -2 3
-7 -3 -11 -12z"/>
<path d="M4291 5254 c0 -11 3 -14 6 -6 3 7 2 16 -1 19 -3 4 -6 -2 -5 -13z"/>
<path d="M4260 5205 c-19 -10 -28 -10 -38 -2 -11 8 -18 6 -30 -9 -10 -12 -32
-27 -50 -34 -38 -15 -48 -42 -33 -96 6 -22 11 -61 11 -89 0 -41 4 -53 26 -70
22 -17 25 -25 16 -41 -5 -10 -13 -56 -17 -100 -6 -76 -5 -83 16 -102 26 -25
34 -22 42 16 3 15 22 45 41 67 46 50 60 94 52 161 -4 32 -2 55 4 59 10 6 12
91 3 107 -4 8 -15 0 -54 -34 -28 -27 -28 -148 1 -166 26 -16 26 -62 0 -90 -12
-12 -24 -22 -29 -22 -4 0 -14 -11 -21 -25 -13 -24 -30 -25 -30 -1 0 8 16 31
35 52 42 45 44 66 9 89 -26 17 -27 19 -20 96 8 94 13 109 36 109 20 0 45 51
37 74 -3 7 1 25 8 40 8 14 13 26 12 26 -1 -1 -13 -7 -27 -15z"/>
<path d="M4280 5156 c0 -8 4 -17 9 -21 6 -3 9 4 8 15 -1 23 -17 28 -17 6z"/>
<path d="M4550 5159 c0 -5 5 -7 10 -4 6 3 10 8 10 11 0 2 -4 4 -10 4 -5 0 -10
-5 -10 -11z"/>
<path d="M2911 5102 c-6 -2 -11 -8 -11 -14 0 -10 39 -1 54 13 9 8 -20 9 -43 1z"/>
<path d="M4341 5044 c0 -11 3 -14 6 -6 3 7 2 16 -1 19 -3 4 -6 -2 -5 -13z"/>
<path d="M4526 5021 c-9 -16 -13 -31 -10 -34 3 -2 -6 -14 -20 -25 -15 -11 -26
-23 -26 -27 0 -4 -10 -15 -22 -25 -22 -17 -23 -17 -55 7 -32 25 -33 25 -33 4
0 -11 -5 -21 -11 -21 -7 0 -9 10 -7 25 4 20 2 23 -12 15 -13 -7 -17 -18 -14
-42 15 -113 16 -159 3 -174 -7 -8 -8 -14 -3 -12 13 4 65 -38 57 -46 -3 -3 -19
-6 -34 -6 -22 0 -27 -4 -24 -19 3 -14 -1 -18 -11 -14 -8 3 -14 12 -14 19 0 11
-5 12 -17 6 -10 -5 -36 -13 -57 -17 -22 -3 -49 -13 -60 -21 -20 -14 -20 -14 7
-14 23 0 27 -4 27 -31 0 -37 20 -118 30 -124 5 -3 14 8 22 25 17 39 24 38 32
-6 5 -26 2 -46 -14 -75 -17 -33 -19 -47 -11 -77 5 -20 12 -64 16 -96 l7 -60
19 25 19 24 -7 -60 c-3 -33 -16 -96 -27 -139 l-21 -80 -57 -30 c-109 -59 -133
-74 -148 -92 -23 -29 -40 -62 -40 -79 0 -9 -4 -13 -10 -10 -8 5 -12 -10 -10
-41 1 -3 -9 -13 -21 -22 l-21 -18 24 1 c33 2 50 14 44 31 -8 20 0 17 22 -6 17
-18 20 -19 32 -5 15 18 47 20 53 3 3 -9 10 -7 21 7 8 11 16 16 16 10 0 -5 5
-3 11 5 8 12 12 12 16 2 3 -9 9 -10 17 -3 9 7 16 5 26 -9 12 -17 15 -17 37 -3
23 15 24 15 30 -5 4 -16 9 -19 20 -13 18 10 68 -12 76 -33 7 -17 53 -14 70 3
8 8 7 11 -6 11 -11 0 -17 8 -17 21 0 26 -17 59 -31 59 -6 0 -7 -4 -4 -10 3 -5
2 -10 -4 -10 -10 0 -20 30 -20 60 1 8 -6 47 -15 85 -9 39 -19 104 -22 146 -6
81 -2 92 47 104 22 5 28 1 45 -32 10 -20 33 -51 51 -68 17 -17 35 -44 39 -60
4 -17 12 -35 18 -41 6 -6 18 -21 26 -33 18 -27 30 -26 54 3 19 24 63 25 78 2
5 -8 16 -7 39 1 23 9 36 9 45 2 9 -7 21 -5 41 8 46 29 125 111 111 115 -7 3
-13 24 -14 49 -3 71 -13 93 -52 119 -20 14 -45 35 -55 48 -10 12 -24 28 -31
35 -24 24 -33 52 -29 90 3 20 10 37 17 37 6 0 13 11 14 25 1 14 9 36 17 49 15
22 15 25 0 38 -9 7 -25 21 -36 31 -10 9 -23 17 -29 17 -5 0 -10 5 -10 10 0 6
-14 10 -31 10 -16 0 -28 4 -24 9 8 14 -36 8 -65 -9 -48 -26 -200 -51 -200 -32
0 6 5 14 10 17 19 12 -8 41 -39 43 -39 3 -74 -14 -64 -31 4 -8 1 -7 -10 1 -9
8 -21 11 -26 8 -5 -4 -13 -1 -17 5 -10 17 40 59 57 48 8 -5 26 -9 42 -9 24 0
27 4 28 33 1 17 1 36 0 41 -1 5 7 15 19 23 11 8 20 22 20 31 0 39 22 92 37 92
13 0 15 -8 9 -47 -3 -26 -12 -50 -19 -55 -6 -4 -7 -8 -2 -8 6 0 15 -11 21 -24
10 -21 8 -28 -7 -45 -25 -26 -24 -31 4 -31 13 0 35 12 48 28 30 32 53 82 39
82 -14 0 -12 27 3 33 10 4 10 6 0 6 -9 1 -13 19 -13 55 0 49 2 54 20 49 10 -3
26 1 33 9 20 19 31 58 18 58 -6 0 -11 20 -11 46 0 35 -5 51 -22 65 -29 26 -45
24 -62 -10z m-216 -505 c0 -11 -19 -15 -25 -6 -3 5 1 10 9 10 9 0 16 -2 16 -4z
m45 -816 c3 -5 1 -10 -4 -10 -6 0 -11 5 -11 10 0 6 2 10 4 10 3 0 8 -4 11 -10z
m65 -70 c0 -5 -5 -10 -11 -10 -5 0 -7 5 -4 10 3 6 8 10 11 10 2 0 4 -4 4 -10z"/>
<path d="M3950 4985 c0 -8 4 -15 10 -15 5 0 7 7 4 15 -4 8 -8 15 -10 15 -2 0
-4 -7 -4 -15z"/>
<path d="M2637 4925 c-20 -34 -37 -66 -37 -72 0 -32 89 -23 164 16 64 33 70
51 19 51 -29 0 -46 8 -73 34 l-36 33 -37 -62z"/>
<path d="M3975 4938 c-8 -28 -12 -158 -4 -158 5 0 9 12 10 28 6 143 5 163 -6
130z"/>
<path d="M2513 4820 c-22 -9 -32 -30 -15 -30 4 0 17 -3 30 -6 19 -5 22 -2 22
20 0 28 -3 29 -37 16z"/>
<path d="M3557 4753 c-13 -12 -7 -22 13 -20 11 1 20 7 20 14 0 14 -22 18 -33
6z"/>
<path d="M2530 4736 c0 -8 5 -18 10 -21 6 -3 10 3 10 14 0 12 -4 21 -10 21 -5
0 -10 -6 -10 -14z"/>
<path d="M3487 4733 c-12 -11 -8 -23 8 -23 8 0 15 5 15 11 0 5 4 8 9 4 5 -3
12 -1 16 5 7 11 -37 14 -48 3z"/>
<path d="M4585 4711 c-7 -12 12 -24 25 -16 11 7 4 25 -10 25 -5 0 -11 -4 -15
-9z"/>
<path d="M3240 4670 c-47 -9 -241 -104 -312 -153 -31 -21 -79 -65 -107 -97
-45 -51 -55 -58 -99 -64 l-49 -6 -6 -68 c-4 -37 -7 -108 -7 -158 0 -83 3 -98
31 -154 28 -57 30 -66 20 -108 -6 -26 -9 -75 -7 -110 4 -68 -6 -85 -33 -53
-21 25 -46 9 -31 -19 5 -10 17 -39 25 -64 15 -44 15 -51 -1 -94 -10 -26 -26
-58 -36 -71 -10 -13 -18 -30 -18 -37 0 -8 -4 -14 -10 -14 -5 0 -14 -19 -21
-42 -22 -84 -79 -172 -154 -239 -42 -36 -239 -176 -303 -214 -9 -5 -37 -27
-61 -47 -24 -21 -47 -38 -52 -38 -4 0 -11 -16 -15 -35 -5 -28 -1 -44 18 -73
40 -62 50 -92 37 -108 -6 -8 -14 -12 -18 -10 -3 2 -6 -19 -7 -47 0 -55 18 -89
38 -69 7 7 19 7 35 1 14 -5 28 -7 33 -4 5 3 11 1 15 -5 4 -6 10 -8 15 -5 9 6
120 -116 120 -133 0 -15 117 -120 142 -127 13 -3 53 -15 90 -27 38 -11 78 -18
92 -14 32 8 219 195 301 301 17 22 46 58 66 81 19 22 41 55 48 72 8 18 17 32
22 32 5 0 9 6 9 14 0 8 3 16 8 18 4 2 38 41 77 88 38 47 75 90 81 95 6 6 19
24 29 40 10 17 24 37 31 45 46 52 74 89 74 98 0 6 13 26 28 44 31 35 132 183
132 193 0 3 12 23 26 45 19 29 45 49 88 70 34 16 73 40 87 54 15 13 51 38 82
56 49 27 58 37 70 78 8 26 15 80 16 120 1 66 -5 90 -65 255 -36 100 -67 187
-69 194 -6 18 -150 88 -235 114 -57 18 -99 23 -175 23 -111 0 -150 -11 -276
-74 -68 -34 -91 -49 -133 -85 -66 -59 -90 -75 -99 -72 -25 8 1 203 29 220 8 4
14 19 14 32 0 16 6 25 15 25 8 0 15 5 15 10 0 6 9 10 20 10 11 0 20 5 20 10 0
6 5 10 11 10 6 0 28 12 48 28 20 15 45 33 56 40 60 37 81 52 92 61 7 6 18 11
26 11 8 0 29 8 48 18 28 14 60 17 179 16 166 0 200 -4 200 -21 0 -7 7 -13 15
-13 16 0 15 22 -4 120 l-7 35 -164 0 c-91 1 -181 -2 -200 -5z m-410 -625 c0
-7 -30 -13 -34 -7 -3 4 4 9 15 9 10 1 19 0 19 -2z"/>
<path d="M2401 4595 c-21 -27 -47 -60 -57 -72 -11 -11 -35 -41 -54 -64 -19
-24 -53 -64 -75 -90 -52 -60 -74 -87 -107 -131 -15 -20 -33 -42 -40 -50 -30
-32 -78 -98 -78 -107 0 -5 -4 -11 -9 -13 -15 -5 -151 -197 -151 -213 0 -8 9
-19 20 -25 22 -12 51 -67 60 -114 3 -16 14 -34 25 -40 11 -6 23 -15 26 -19 8
-12 159 -4 373 18 34 4 54 1 65 -9 19 -17 111 -30 142 -21 17 6 19 9 8 16 -9
6 -10 9 -2 9 6 0 15 -5 18 -10 12 -20 24 1 23 40 0 22 -5 40 -11 40 -6 0 -8 2
-5 5 3 3 -1 38 -8 78 -8 40 -14 86 -14 102 0 19 -7 35 -20 43 -32 20 -57 82
-64 162 -11 121 4 192 72 333 42 89 58 132 55 153 l-5 29 -74 0 -75 0 -38 -50z"/>
<path d="M1070 4509 c0 -5 5 -7 10 -4 6 3 10 8 10 11 0 2 -4 4 -10 4 -5 0 -10
-5 -10 -11z"/>
<path d="M1007 4455 c-25 -19 -50 -35 -56 -35 -5 0 -13 -4 -16 -10 -15 -24 90
34 114 64 21 25 8 19 -42 -19z"/>
<path d="M5430 4465 c-13 -16 2 -58 27 -76 31 -23 79 -92 94 -134 14 -39 14
-36 17 84 1 68 1 126 -2 128 -11 12 -126 10 -136 -2z"/>
<path d="M1049 4404 c-18 -20 -60 -49 -91 -65 -32 -16 -58 -34 -58 -39 0 -15
90 33 125 67 36 33 70 73 64 73 -3 0 -21 -16 -40 -36z"/>
<path d="M2830 4110 c0 -5 5 -10 11 -10 5 0 7 5 4 10 -3 6 -8 10 -11 10 -2 0
-4 -4 -4 -10z"/>
<path d="M803 4083 c9 -2 23 -2 30 0 6 3 -1 5 -18 5 -16 0 -22 -2 -12 -5z"/>
<path d="M2607 3823 c-4 -7 -3 -21 3 -32 5 -11 10 -29 10 -40 0 -11 5 -23 10
-26 6 -4 10 10 10 35 0 23 -4 39 -9 35 -5 -3 -11 5 -13 17 -2 16 -6 19 -11 11z"/>
<path d="M1640 3537 c0 -8 -9 -22 -21 -33 -41 -37 -77 -138 -46 -132 26 5 87
-13 81 -24 -4 -7 -3 -8 4 -4 7 4 12 14 12 22 0 8 5 13 12 12 11 -3 14 13 21
122 2 31 -1 35 -20 34 -13 0 -23 3 -23 8 0 4 -4 8 -10 8 -5 0 -10 -6 -10 -13z"/>
<path d="M1836 2518 c-3 -7 -7 -25 -10 -39 -5 -22 -10 -25 -35 -21 -34 5 -72
-17 -91 -53 -7 -14 -19 -25 -27 -25 -26 0 -13 -20 15 -22 56 -4 87 3 106 24
18 20 20 20 32 3 12 -16 16 -16 31 -4 10 8 23 20 29 28 10 13 13 12 25 -6 7
-12 19 -19 27 -16 8 3 18 0 23 -8 8 -12 11 -12 19 1 18 28 12 58 -12 62 -19 2
-23 9 -23 36 0 31 -1 32 -42 32 -24 0 -43 5 -43 10 0 14 -20 12 -24 -2z"/>
<path d="M1713 2333 c9 -2 23 -2 30 0 6 3 -1 5 -18 5 -16 0 -22 -2 -12 -5z"/>
<path d="M1620 2301 c0 -25 6 -27 13 -6 4 8 2 17 -3 20 -6 4 -10 -3 -10 -14z"/>
<path d="M1718 2293 c-2 -19 -8 -27 -18 -24 -52 13 -58 12 -65 -8 -3 -11 -14
-23 -24 -26 -10 -3 -26 -22 -37 -43 -11 -20 -31 -42 -44 -49 -14 -7 -22 -13
-17 -13 4 0 -8 -15 -28 -34 -19 -19 -35 -39 -35 -45 0 -6 -15 -25 -33 -43 -18
-18 -33 -44 -34 -56 -1 -13 -9 -29 -18 -36 -11 -8 -15 -23 -13 -46 3 -30 6
-34 34 -34 16 0 35 4 42 8 7 4 27 5 46 2 28 -5 35 -2 39 14 3 12 14 20 26 20
13 0 25 9 30 22 10 29 19 13 22 -44 3 -54 -2 -62 -39 -64 -49 -3 -52 -4 -52
-19 0 -9 -12 -27 -27 -40 l-28 -23 24 -26 c19 -20 27 -23 34 -14 6 9 7 7 3 -6
-4 -12 1 -26 13 -38 24 -22 35 -23 27 -3 -4 12 0 14 19 9 21 -5 25 -3 25 16 0
12 9 35 20 50 13 19 19 38 15 54 -3 15 -7 37 -10 51 -3 14 -1 25 5 25 5 0 9
-5 8 -11 -2 -7 12 -12 34 -13 21 0 38 2 38 7 1 51 -2 59 -19 64 -16 4 -19 12
-17 42 3 33 6 36 37 39 19 1 41 5 49 8 13 4 13 6 0 14 -10 6 -11 10 -3 10 9 0
10 7 4 23 -5 12 -16 21 -25 19 -9 -2 -16 4 -16 13 0 8 7 15 17 15 9 0 14 3 10
6 -3 4 5 21 18 39 14 17 22 35 18 38 -3 4 -1 7 6 7 8 0 11 12 9 33 -2 23 1 32
12 32 21 0 28 12 23 39 -4 18 -10 21 -38 18 -30 -4 -35 -1 -41 22 -8 34 -22
33 -26 -1z m-78 -424 c0 -5 -4 -9 -10 -9 -5 0 -10 7 -10 16 0 8 5 12 10 9 6
-3 10 -10 10 -16z m-130 -136 c-1 -17 -28 -44 -35 -34 -3 6 0 17 7 25 14 16
28 21 28 9z"/>
<path d="M713 2271 c-18 -5 -44 -16 -59 -26 l-26 -17 21 -22 c12 -12 21 -32
21 -45 0 -28 22 -70 49 -95 12 -11 21 -24 21 -31 0 -6 11 -17 25 -23 28 -13
33 -43 10 -62 -24 -20 -19 -65 9 -84 19 -12 39 -14 91 -9 55 5 68 3 78 -11 18
-24 86 -18 101 9 6 11 16 24 23 30 12 10 16 27 14 56 -2 26 -51 52 -98 53 -28
0 -43 4 -43 13 0 8 13 13 35 13 19 0 35 5 35 10 0 6 -7 10 -15 10 -8 0 -15 7
-15 15 0 8 6 15 14 15 7 0 16 14 20 30 3 18 12 30 21 30 9 0 15 9 15 24 0 13
6 27 13 30 10 5 10 7 0 12 -7 3 -13 13 -14 22 0 11 -2 12 -6 5 -8 -22 -20 -14
-26 17 -5 24 -12 30 -32 30 -14 0 -25 -4 -25 -10 0 -13 -33 -13 -47 1 -14 14
-167 21 -210 10z m227 -277 c0 -2 -9 -4 -21 -4 -11 0 -18 4 -14 10 5 8 35 3
35 -6z m53 -151 c-7 -2 -19 -2 -25 0 -7 3 -2 5 12 5 14 0 19 -2 13 -5z"/>
<path d="M176 2249 c-80 -12 -106 -30 -106 -75 0 -51 21 -127 38 -140 10 -7
15 -28 15 -58 0 -39 -5 -52 -31 -79 -40 -42 -40 -58 1 -79 43 -23 205 -28 218
-7 8 13 13 6 10 -13 -3 -18 14 -6 88 60 l36 32 -30 25 c-20 17 -42 25 -67 25
-21 0 -38 5 -38 10 0 6 -16 10 -35 10 -22 0 -35 5 -35 13 0 15 68 16 78 1 13
-17 42 -16 42 3 0 10 7 27 15 37 8 11 15 30 15 42 0 12 6 24 13 27 10 4 13 22
12 60 -1 48 2 57 19 62 19 6 18 8 -9 15 -156 45 -146 44 -249 29z"/>
<path d="M2050 2160 c0 -5 5 -10 11 -10 5 0 7 5 4 10 -3 6 -8 10 -11 10 -2 0
-4 -4 -4 -10z"/>
<path d="M2442 2148 c-13 -13 -16 -38 -6 -38 8 0 33 32 34 43 0 11 -15 8 -28
-5z"/>
<path d="M2386 2088 c-4 -18 -7 -45 -7 -59 0 -23 -5 -28 -36 -34 -27 -5 -33
-9 -22 -16 20 -12 35 -11 51 4 7 7 25 21 41 31 22 15 25 21 16 33 -9 10 -9 17
-1 25 9 9 8 16 -5 30 -23 25 -30 23 -37 -14z"/>
<path d="M1928 2103 c7 -3 16 -2 19 1 4 3 -2 6 -13 5 -11 0 -14 -3 -6 -6z"/>
<path d="M2355 2060 c3 -5 8 -10 11 -10 2 0 4 5 4 10 0 6 -5 10 -11 10 -5 0
-7 -4 -4 -10z"/>
<path d="M1808 2039 c-13 -13 -14 -19 -5 -19 14 0 37 20 37 32 0 13 -14 8 -32
-13z"/>
<path d="M1873 2046 c-13 -6 -23 -19 -23 -28 0 -10 -6 -18 -12 -18 -10 0 -9
-3 1 -9 7 -5 11 -13 7 -19 -3 -5 9 -12 27 -16 24 -5 35 -2 44 11 8 10 13 12
13 4 0 -7 -7 -20 -16 -29 -15 -15 -15 -17 7 -35 23 -18 23 -19 3 -13 -15 5
-24 2 -28 -10 -5 -13 -15 -15 -56 -9 -42 6 -50 4 -50 -9 0 -9 7 -16 15 -16 8
0 15 -4 15 -10 0 -5 7 -10 15 -10 8 0 15 -9 15 -20 0 -11 -3 -19 -7 -17 -5 1
-10 -2 -12 -8 -2 -5 -7 -20 -12 -32 -6 -16 -5 -23 4 -24 33 -2 81 -10 86 -15
3 -2 -5 -7 -17 -11 -30 -7 -28 -30 3 -36 16 -3 34 2 48 14 l22 18 -22 1 c-34
0 -28 17 11 30 19 6 37 16 40 23 3 9 5 9 5 0 1 -18 28 -16 39 3 5 9 12 15 15
15 18 -2 24 1 52 26 16 16 43 35 60 44 16 9 32 24 33 34 2 10 0 15 -6 11 -6
-3 -13 -2 -16 3 -3 5 8 11 24 13 16 3 32 0 34 -6 3 -6 2 3 -1 20 -5 29 -2 33
31 45 30 11 34 15 19 20 -34 14 -51 9 -57 -16 -4 -14 -12 -25 -19 -25 -21 0
-108 -46 -100 -53 3 -4 -5 -7 -19 -7 -15 0 -29 -6 -31 -12 -3 -9 -17 -1 -38
22 -28 28 -34 42 -36 85 -1 27 -2 55 -3 60 0 7 -15 9 -35 7 -21 -3 -35 0 -35
7 0 13 -7 12 -37 -3z m84 -108 c-3 -7 -5 -2 -5 12 0 14 2 19 5 13 2 -7 2 -19
0 -25z m33 -58 c13 -8 13 -11 -2 -27 -20 -19 -23 -18 -32 15 -8 24 7 29 34 12z
m17 -50 c-3 -21 -17 -40 -17 -22 0 13 11 42 16 42 2 0 3 -9 1 -20z m-64 -16
c-7 -18 -43 -18 -43 0 0 8 6 16 13 19 19 7 36 -3 30 -19z m-49 -10 c9 -22 -3
-32 -14 -14 -12 19 -12 30 -1 30 5 0 12 -7 15 -16z"/>
<path d="M2327 2033 c-12 -12 -7 -22 8 -17 8 4 15 10 15 15 0 11 -14 12 -23 2z"/>
<path d="M2290 1950 c0 -5 -8 -10 -18 -10 -10 0 -19 -6 -19 -14 0 -13 4 -13
26 -1 52 28 58 35 34 35 -13 0 -23 -4 -23 -10z"/>
<path d="M1865 1930 c3 -5 10 -10 16 -10 5 0 9 5 9 10 0 6 -7 10 -16 10 -8 0
-12 -4 -9 -10z"/>
<path d="M1820 1900 c0 -5 5 -10 10 -10 6 0 10 5 10 10 0 6 -4 10 -10 10 -5 0
-10 -4 -10 -10z"/>
<path d="M1427 1803 c-4 -3 -7 -11 -7 -17 0 -6 5 -5 12 2 6 6 9 14 7 17 -3 3
-9 2 -12 -2z"/>
<path d="M1461 1766 c-1 -14 -6 -17 -26 -12 -23 6 -24 5 -14 -13 12 -18 13
-18 32 -1 10 10 17 24 14 32 -3 8 -6 6 -6 -6z"/>
<path d="M1985 1720 c-3 -6 1 -7 9 -4 18 7 21 14 7 14 -6 0 -13 -4 -16 -10z"/>
<path d="M1046 1642 c-9 -27 -88 -88 -171 -133 -76 -40 -125 -76 -125 -91 0
-15 17 -8 61 27 24 19 50 35 57 35 7 0 20 4 30 9 9 5 37 17 62 27 62 25 66 29
81 79 7 25 17 45 21 45 4 0 8 5 8 10 0 17 -18 11 -24 -8z"/>
<path d="M1810 1609 c0 -5 5 -7 10 -4 6 3 10 8 10 11 0 2 -4 4 -10 4 -5 0 -10
-5 -10 -11z"/>
<path d="M1670 1520 c0 -5 5 -10 11 -10 5 0 7 5 4 10 -3 6 -8 10 -11 10 -2 0
-4 -4 -4 -10z"/>
<path d="M27 1462 c-39 -5 -33 -22 8 -22 19 0 35 4 35 9 0 14 -11 17 -43 13z"/>
<path d="M0 1200 c0 -35 3 -40 23 -40 13 0 28 5 33 10 6 6 78 11 167 12 87 0
160 5 163 9 2 5 11 6 18 3 8 -3 17 -1 21 5 3 6 0 11 -8 11 -8 0 -17 7 -21 15
-4 13 -36 15 -201 15 l-195 0 0 -40z"/>
<path d="M5537 1194 c-34 -19 -33 -49 2 -49 20 0 25 6 28 33 2 17 3 32 1 32
-2 -1 -16 -8 -31 -16z"/>
<path d="M5393 933 c-11 -11 -27 -22 -37 -26 -9 -4 -23 -21 -30 -39 -16 -36
-8 -60 33 -107 25 -29 21 -53 -16 -93 -35 -37 -26 -76 19 -85 29 -6 30 -7 10
-14 -39 -15 -26 -37 26 -44 60 -8 74 -13 40 -14 -15 -1 -30 -6 -34 -12 -12
-20 20 -29 91 -27 l70 3 3 226 c2 183 0 228 -11 232 -7 3 -43 8 -79 12 -57 6
-68 5 -85 -12z"/>
<path d="M591 714 c-12 -15 -21 -32 -21 -38 0 -14 38 -38 43 -28 6 10 8 92 3
92 -3 0 -14 -12 -25 -26z"/>
<path d="M6 612 c-3 -3 -6 -25 -6 -49 0 -51 9 -53 110 -24 104 31 140 49 133
67 -5 15 -7 15 -15 0 -8 -14 -13 -15 -24 -5 -15 12 -188 22 -198 11z"/>
<path d="M488 562 c-31 -9 -60 -20 -64 -25 -4 -4 2 -21 15 -37 22 -31 15 -38
-21 -19 -26 14 -67 19 -73 8 -7 -11 -183 -10 -190 1 -3 6 -1 10 5 10 6 0 8 5
4 11 -5 8 -8 8 -13 0 -8 -12 -57 -15 -113 -7 l-38 5 0 -255 0 -254 24 0 c40 0
126 23 126 33 0 5 -13 7 -30 4 l-29 -6 20 20 c11 11 26 18 33 16 7 -3 24 8 37
24 13 16 32 29 42 29 15 0 16 3 6 21 -8 16 -8 23 1 29 6 4 9 20 7 36 -7 46 7
54 98 54 68 0 87 -4 109 -21 14 -11 26 -16 26 -10 0 16 26 13 40 -4 9 -11 23
-14 45 -9 19 3 35 1 39 -5 12 -18 40 -12 55 10 12 21 18 21 104 14 51 -4 181
-9 290 -11 165 -3 197 -1 188 10 -9 11 4 15 71 21 108 9 151 18 156 33 5 16
-93 16 -264 1 -92 -8 -132 -8 -150 0 -15 6 -24 7 -24 1 0 -13 -47 -13 -55 0
-3 6 -37 10 -75 10 -127 0 -246 55 -227 104 3 8 2 29 -3 48 -5 18 -12 45 -15
60 -7 36 -43 68 -74 67 -14 0 -52 -8 -83 -17z m-298 -412 c-14 -4 -29 -4 -35
-1 -5 3 1 8 15 11 14 4 29 4 35 1 5 -3 -1 -8 -15 -11z"/>
<path d="M1250 230 c0 -5 5 -10 11 -10 5 0 7 5 4 10 -3 6 -8 10 -11 10 -2 0
-4 -4 -4 -10z"/>
<path d="M231 94 c0 -11 3 -14 6 -6 3 7 2 16 -1 19 -3 4 -6 -2 -5 -13z"/>
<path d="M530 26 l-35 -13 56 -8 c56 -7 99 4 99 25 0 14 -78 11 -120 -4z"/>
<path d="M238 3 c12 -2 32 -2 45 0 12 2 2 4 -23 4 -25 0 -35 -2 -22 -4z"/>
</g>
</svg>
